# xmcd
#
# Track frame offsets:
#	150
#	27815
#	48445
#	71512
#	95250
#	114962
#	136345
#	160640
#	162575
#	194747
# Disc length: 3194 seconds
# Revision: 2
# Processed by: cddbd v1.5.1PL2 Copyright (c) Steve Scherf et al.
#
# Submitted via: libkcddb 0.21
#
DISCID=800c780a
DTITLE=Hot Tuna - Classic Hot Tuna Acoustic
DYEAR=1971
DGENRE=Unknown
TTITLE0=Never Happen No More
TTITLE1=Candyman
TTITLE2=New Song For The Morning
TTITLE3=Hesitation Blues
TTITLE4=Been So Long
TTITLE5=Search My Heart
TTITLE6=Uncle Sam's Blues
TTITLE7=(Freak Out Portion Of The Show)
TTITLE8=True Religion
TTITLE9=Death Don't Have No Mercy
EXTD=
EXTT0=
EXTT1=
EXTT2=
EXTT3=
EXTT4=
EXTT5=
EXTT6=
EXTT7=
EXTT8=
EXTT9=
PLAYORDER=
